<svg xmlns="http://www.w3.org/2000/svg" width="24" height="24" viewBox="0 0 24 24"><path fill="#0A3761" d="M11.967,4.421,2,10.211v3.561l9.988,5.807L22,13.789V10.211Zm.065,11L3,10.21,11.968,5,21,10.213ZM15.99,8.539l-.005,1.829V10.4a1.373,1.373,0,0,1-.026.23c-.01.05-.027.1-.042.149-.005.014-.008.029-.012.043s-.006.023-.01.034a1.627,1.627,0,0,1-.107.229c-.021.038-.05.074-.075.112-.014.022-.028.044-.044.066s-.026.042-.042.062a2.2,2.2,0,0,1-.248.269c-.008.007-.02.013-.027.02a3.149,3.149,0,0,1-.287.214c-.068.048-.121.1-.2.145l-.049.03a4.466,4.466,0,0,1-.785.347c-.032.011-.057.029-.089.04-.068.022-.142.033-.212.053-.131.037-.263.071-.4.1-.049.01-.094.027-.143.036-.113.02-.229.033-.345.048-.038,0-.076.012-.115.016l-.048.007c-.147.014-.294.024-.442.029-.061,0-.122,0-.183,0h-.1c-.041,0-.081,0-.121,0q-.2,0-.393-.021c-.051,0-.1-.011-.151-.017l-.1-.011c-.046,0-.093-.009-.139-.015-.133-.02-.266-.043-.4-.07-.036-.007-.071-.018-.107-.026l-.114-.028c-.066-.017-.133-.031-.2-.049-.124-.035-.243-.079-.361-.123-.032-.011-.065-.02-.1-.032l-.03-.011A4.271,4.271,0,0,1,9.169,12a2.008,2.008,0,0,1-1.178-1.656L8,8.539h.085a2.071,2.071,0,0,0,1.093,1.4,4.419,4.419,0,0,0,.612.291c.031.012.064.021.1.032a5.153,5.153,0,0,0,.557.171l.115.029q.315.07.642.111l.1.011c.22.023.442.036.664.037.035,0,.07,0,.105,0,.225,0,.45-.013.672-.037.04,0,.079-.012.118-.017.165-.021.326-.051.486-.084.136-.028.268-.063.4-.1.1-.029.2-.059.3-.093a4.541,4.541,0,0,0,.785-.347c.093-.055.162-.117.244-.175a3.149,3.149,0,0,0,.287-.214,2.29,2.29,0,0,0,.318-.352c.016-.021.03-.043.044-.065a1.7,1.7,0,0,0,.191-.375c0-.014.008-.029.013-.044a1.438,1.438,0,0,0,.03-.182Z"/></svg>