<svg xmlns="http://www.w3.org/2000/svg" width="24" height="24" viewBox="0 0 24 24"><path fill="#0A3761" d="M21.662,6.617,11.974,1,2.359,6.6l-.024.041.011,3.174L12,15.428l9.665-5.616.009-3.177ZM11.975,1.578,20.708,6.62,12.036,11.7,3.3,6.617Zm9.689,8.808-.009,3.2L11.99,19.2,2.329,13.581l.009-3.195L12,16Zm0,3.8-.009,3.135L11.99,23,2.329,17.323l.009-3.135L12,19.805ZM15.811,7.235c-.378,1.079-1.61,1.52-2.644,1.745-1.7.336-4.848-.133-5.043-2.169l0-1.881V4.819h0a1.967,1.967,0,0,0,.035.206c.61,2.695,6.7,2.73,7.652.211a1.413,1.413,0,0,0,.056-.338h.01A16.2,16.2,0,0,1,15.811,7.235Z"/></svg>