<svg xmlns="http://www.w3.org/2000/svg" width="24" height="24" viewBox="0 0 24 24">
    <path fill="#0A3761" d="M15.423,13.1c.1,0,.194-.01.29-.02l.031,0,.076-.011c.075-.009.151-.018.225-.031.032-.006.062-.017.094-.024.089-.018.175-.041.261-.065.046-.013.1-.02.139-.035.021-.007.038-.019.058-.026a2.92,2.92,0,0,0,.514-.227l.032-.019c.049-.03.084-.064.128-.1a2.036,2.036,0,0,0,.188-.139l.018-.014a1.56,1.56,0,0,0,.163-.176c.01-.013.017-.027.027-.041l.029-.043c.016-.024.035-.048.049-.073a1.016,1.016,0,0,0,.07-.15l.006-.022.008-.028c.01-.033.021-.065.028-.1a.983.983,0,0,0,.017-.151v-.023l0-1.349a.91.91,0,0,1-.045.271l-.008.028a1.062,1.062,0,0,1-.126.246c-.009.014-.018.029-.028.043a1.573,1.573,0,0,1-.208.23,2.187,2.187,0,0,1-.188.14c-.054.038-.1.079-.16.114a2.956,2.956,0,0,1-.514.228c-.064.022-.13.041-.2.06-.086.024-.172.047-.261.066-.105.021-.21.041-.318.054-.026,0-.051.009-.077.011a4.31,4.31,0,0,1-.44.025h-.069a4.2,4.2,0,0,1-.435-.025l-.065-.007a4.138,4.138,0,0,1-.42-.073c-.025,0-.05-.012-.075-.018a3.6,3.6,0,0,1-.365-.112l-.062-.022a2.737,2.737,0,0,1-.4-.19,1.315,1.315,0,0,1-.771-1.084l0,1.349a1.315,1.315,0,0,0,.772,1.084,2.837,2.837,0,0,0,.38.183l.02.007c.02.008.042.014.062.021.078.029.156.057.237.081.042.012.086.021.129.031l.074.019.07.017c.086.018.172.033.26.046l.091.01.065.007.1.011c.085.007.171.012.257.014.027,0,.053,0,.08,0H15.3C15.344,13.1,15.383,13.105,15.423,13.1Z"/>
    <path fill="#0A3761" d="M11.366,3.992l-.008.029a1.076,1.076,0,0,1-.126.245c-.009.014-.018.029-.028.043a1.573,1.573,0,0,1-.208.23,2.187,2.187,0,0,1-.188.14c-.054.038-.1.079-.16.114a2.882,2.882,0,0,1-.514.228c-.064.022-.13.041-.2.06-.086.025-.172.047-.261.066-.105.021-.21.041-.318.055l-.077.011c-.146.015-.293.023-.44.024H8.772q-.219,0-.435-.024l-.065-.008a3.877,3.877,0,0,1-.42-.073c-.025,0-.05-.012-.075-.018A3.519,3.519,0,0,1,7.412,5c-.02-.008-.042-.013-.062-.021a2.847,2.847,0,0,1-.4-.191,1.424,1.424,0,0,1-.771-1.084l0,1.349a1.315,1.315,0,0,0,.771,1.084,2.85,2.85,0,0,0,.381.183l.02.007c.02.008.042.014.062.021.078.029.156.057.237.081.042.012.086.021.129.032l.074.018.07.017c.086.018.172.033.26.046l.091.01.065.007c.032,0,.065.009.1.011.085.007.171.012.257.014h.147c.04,0,.08,0,.12,0,.1,0,.194-.01.29-.02l.031,0,.076-.011c.075-.009.151-.018.225-.031.032-.006.062-.017.094-.024.089-.018.175-.041.261-.065.046-.013.094-.02.139-.035.021-.007.037-.018.058-.026a2.848,2.848,0,0,0,.514-.227l.032-.019c.049-.03.084-.064.128-.1a2.041,2.041,0,0,0,.188-.14l.018-.014a1.567,1.567,0,0,0,.163-.176c.01-.013.017-.027.027-.04l.029-.044c.016-.024.035-.048.049-.073a1.016,1.016,0,0,0,.07-.15l.006-.022.008-.028c.01-.032.021-.065.028-.1a.97.97,0,0,0,.017-.151V5.07l0-1.349A.905.905,0,0,1,11.366,3.992Z"/>
    <path fill="#0A3761" d="M15.264,17.381l6.522-3.79.007-2.144.021-.012-6.565-3.79-6.5,3.775L2.286,7.659,2.28,9.815ZM15.25,8.223l5.566,3.213-5.525,3.211L9.724,11.434Z"/>
    <path fill="#0A3761" d="M2.278,7.072,8.8,10.863l6.522-3.791.007-2.144.021-.012L8.782,1.126,2.26,4.916l.024.014ZM8.783,1.7l5.566,3.214L8.824,8.129,3.257,4.915Z"/>
    <polygon fill="#0A3761" points="8.799 14.205 8.799 14.199 2.28 10.409 2.273 12.565 8.747 16.329 8.747 16.334 15.266 20.125 21.788 16.334 21.794 14.178 15.272 17.968 8.799 14.205"/>
    <polygon fill="#0A3761" points="2.192 13.105 2.186 15.131 15.26 22.884 21.782 19.084 21.788 16.928 15.266 20.718 2.192 13.105"/>
</svg>