<svg xmlns="http://www.w3.org/2000/svg" width="24" height="24" viewBox="0 0 24 24">
    <title>ico__datasheet_outline</title>
    <path fill="#0A3761"
          d="M15.2,8H8.8a1,1,0,0,1,0-2h6.4a1,1,0,0,1,0,2Zm1,3a1,1,0,0,0-1-1H8.8a1,1,0,0,0,0,2h6.4A1,1,0,0,0,16.2,11Zm0,4a1,1,0,0,0-1-1H8.8a1,1,0,0,0,0,2h6.4A1,1,0,0,0,16.2,15ZM19,3.5a.5.5,0,0,0-.5-.5H5.5a.5.5,0,0,0-.5.5v17a.5.5,0,0,0,.5.5h8.464a.5.5,0,0,0,.354-.146l4.536-4.536A.5.5,0,0,0,19,15.964ZM19,1a2,2,0,0,1,2,2V16.634a.884.884,0,0,1-.259.625l-5.595,5.595a.5.5,0,0,1-.353.146H5a2,2,0,0,1-2-2V3A2,2,0,0,1,5,1Z"/>
</svg>
