<?xml version="1.0" encoding="UTF-8"?>
<svg version="1.1" width="20px" height="20px"
     xmlns="http://www.w3.org/2000/svg">
    <g transform="matrix(1 0 0 1 -30 -129 )">
        <path d="M 10.7692307692308 9.00240384615385  L 10.7692307692308 18.0408653846154  L 18.4615384615385 13.8461538461538  L 18.4615384615385 6.20192307692308  L 10.7692307692308 9.00240384615385  Z M 1.61057692307692 4.59134615384615  L 10 7.64423076923077  L 18.3894230769231 4.59134615384615  L 10 1.53846153846154  L 1.61057692307692 4.59134615384615  Z M 19.7235576923077 3.73798076923077  C 19.9078525641026 4.00240384615385  20 4.29487179487179  20 4.61538461538462  L 20 13.8461538461538  C 20 14.1266025641026  19.9278846153846 14.3870192307692  19.7836538461538 14.6274038461538  C 19.6394230769231 14.8677884615385  19.443108974359 15.0560897435897  19.1947115384615 15.1923076923077  L 10.7331730769231 19.8076923076923  C 10.5088141025641 19.9358974358974  10.2644230769231 20  10 20  C 9.73557692307692 20  9.4911858974359 19.9358974358974  9.26682692307692 19.8076923076923  L 0.805288461538462 15.1923076923077  C 0.556891025641026 15.0560897435897  0.360576923076923 14.8677884615385  0.216346153846154 14.6274038461538  C 0.0721153846153846 14.3870192307692  0 14.1266025641026  0 13.8461538461538  L 0 4.61538461538462  C 0 4.29487179487179  0.0921474358974359 4.00240384615385  0.276442307692308 3.73798076923077  C 0.46073717948718 3.47355769230769  0.705128205128205 3.28525641025641  1.00961538461538 3.17307692307692  L 9.47115384615385 0.0961538461538458  C 9.6474358974359 0.0320512820512797  9.82371794871795 0  10 0  C 10.1762820512821 0  10.3525641025641 0.0320512820512797  10.5288461538462 0.0961538461538458  L 18.9903846153846 3.17307692307692  C 19.2948717948718 3.28525641025641  19.5392628205128 3.47355769230769  19.7235576923077 3.73798076923077  Z "
              fill-rule="nonzero" fill="#0A3761" stroke="none" transform="matrix(1 0 0 1 30 129 )"/>
    </g>
</svg>