<?xml version="1.0" encoding="UTF-8"?>
<svg xmlns="http://www.w3.org/2000/svg" xmlns:xlink="http://www.w3.org/1999/xlink" viewBox="0 0 24 24" width="24px" height="24px">
<g id="surface276792092">
<path style=" stroke:none;fill-rule:nonzero;fill:rgb(0%,0%,0%);fill-opacity:1;" d="M 12 22.199219 C 6.367188 22.199219 1.800781 17.632812 1.800781 12 C 1.800781 6.367188 6.367188 1.800781 12 1.800781 C 17.632812 1.800781 22.199219 6.367188 22.199219 12 C 22.199219 17.632812 17.632812 22.199219 12 22.199219 Z M 12 22.199219 "/>
<path style=" stroke:none;fill-rule:nonzero;fill:rgb(100%,100%,100%);fill-opacity:1;" d="M 9.28125 5.878906 C 7.40625 5.878906 5.878906 7.40625 5.878906 9.28125 L 5.878906 14.71875 C 5.878906 16.59375 7.40625 18.121094 9.28125 18.121094 L 14.71875 18.121094 C 16.59375 18.121094 18.121094 16.59375 18.121094 14.71875 L 18.121094 9.28125 C 18.121094 7.40625 16.59375 5.878906 14.71875 5.878906 Z M 9.28125 7.238281 L 14.71875 7.238281 C 15.84375 7.238281 16.761719 8.15625 16.761719 9.28125 L 16.761719 14.71875 C 16.761719 15.84375 15.84375 16.761719 14.71875 16.761719 L 9.28125 16.761719 C 8.15625 16.761719 7.238281 15.84375 7.238281 14.71875 L 7.238281 9.28125 C 7.238281 8.15625 8.15625 7.238281 9.28125 7.238281 Z M 15.398438 7.921875 C 15.023438 7.921875 14.71875 8.222656 14.71875 8.601562 C 14.71875 8.976562 15.023438 9.28125 15.398438 9.28125 C 15.777344 9.28125 16.078125 8.976562 16.078125 8.601562 C 16.078125 8.222656 15.777344 7.921875 15.398438 7.921875 Z M 12 8.601562 C 10.125 8.601562 8.601562 10.125 8.601562 12 C 8.601562 13.875 10.125 15.398438 12 15.398438 C 13.875 15.398438 15.398438 13.875 15.398438 12 C 15.398438 10.125 13.875 8.601562 12 8.601562 Z M 12 9.960938 C 13.125 9.960938 14.039062 10.875 14.039062 12 C 14.039062 13.125 13.125 14.039062 12 14.039062 C 10.875 14.039062 9.960938 13.125 9.960938 12 C 9.960938 10.875 10.875 9.960938 12 9.960938 Z M 12 9.960938 "/>
</g>
</svg>
