
<?xml version="1.0" encoding="UTF-8"?>
<svg xmlns="http://www.w3.org/2000/svg" xmlns:xlink="http://www.w3.org/1999/xlink" viewBox="0 0 30 30" width="30px" height="30px">
<g id="surface276778141">
<path style=" stroke:none;fill-rule:nonzero;fill:rgb(100%,100%,100%);fill-opacity:1;" d="M 15 26.699219 C 8.539062 26.699219 3.300781 21.460938 3.300781 15 C 3.300781 8.539062 8.539062 3.300781 15 3.300781 C 21.460938 3.300781 26.699219 8.539062 26.699219 15 C 26.699219 21.460938 21.460938 26.699219 15 26.699219 Z M 15 26.699219 "/>
<path style=" stroke:none;fill-rule:nonzero;fill:rgb(0%,0%,0%);fill-opacity:1;" d="M 15 3.238281 C 8.503906 3.238281 3.238281 8.503906 3.238281 15 C 3.238281 21.496094 8.503906 26.761719 15 26.761719 C 21.496094 26.761719 26.761719 21.496094 26.761719 15 C 26.761719 8.503906 21.496094 3.238281 15 3.238281 Z M 19.097656 11.078125 L 17.402344 11.078125 C 16.347656 11.078125 15.980469 11.636719 15.980469 12.761719 L 15.980469 14.019531 L 19.070312 14.019531 L 18.652344 16.960938 L 15.980469 16.960938 L 15.980469 24.75 C 15.65625 24.78125 15.332031 24.800781 15 24.800781 C 14.328125 24.800781 13.671875 24.730469 13.039062 24.601562 L 13.039062 16.960938 L 10.101562 16.960938 L 10.101562 14.019531 L 13.039062 14.019531 L 13.039062 12.441406 C 13.039062 9.453125 14.496094 8.140625 16.980469 8.140625 C 18.171875 8.140625 18.800781 8.226562 19.097656 8.269531 Z M 19.097656 11.078125 "/>
</g>
</svg>
