<?xml version="1.0" encoding="UTF-8"?>
<svg xmlns="http://www.w3.org/2000/svg" xmlns:xlink="http://www.w3.org/1999/xlink" viewBox="0 0 50 50" width="50px" height="50px">
<g id="surface276773653">
<path style=" stroke:none;fill-rule:nonzero;fill:rgb(100%,100%,100%);fill-opacity:1;" d="M 25 44.5 C 14.230469 44.5 5.5 35.769531 5.5 25 C 5.5 14.230469 14.230469 5.5 25 5.5 C 35.769531 5.5 44.5 14.230469 44.5 25 C 44.5 35.769531 35.769531 44.5 25 44.5 Z M 25 44.5 "/>
<path style=" stroke:none;fill-rule:nonzero;fill:rgb(0%,0%,0%);fill-opacity:1;" d="M 25 2.460938 C 12.570312 2.460938 2.460938 12.570312 2.460938 25 C 2.460938 37.429688 12.570312 47.539062 25 47.539062 C 37.429688 47.539062 47.539062 37.429688 47.539062 25 C 47.539062 12.570312 37.429688 2.460938 25 2.460938 Z M 36.011719 20.613281 C 36.023438 20.84375 36.027344 21.078125 36.027344 21.316406 C 36.027344 28.488281 30.566406 36.761719 20.582031 36.761719 C 17.515625 36.761719 14.660156 35.863281 12.261719 34.320312 C 12.683594 34.371094 13.113281 34.394531 13.554688 34.394531 C 16.097656 34.394531 18.441406 33.53125 20.296875 32.074219 C 17.921875 32.03125 15.917969 30.457031 15.222656 28.304688 C 15.558594 28.367188 15.898438 28.402344 16.246094 28.402344 C 16.742188 28.402344 17.222656 28.335938 17.675781 28.210938 C 15.195312 27.710938 13.324219 25.519531 13.324219 22.886719 C 13.324219 22.863281 13.324219 22.839844 13.324219 22.820312 C 14.054688 23.226562 14.890625 23.46875 15.78125 23.5 C 14.324219 22.523438 13.367188 20.863281 13.367188 18.980469 C 13.367188 17.984375 13.636719 17.054688 14.101562 16.25 C 16.78125 19.535156 20.78125 21.695312 25.292969 21.921875 C 25.199219 21.523438 25.148438 21.109375 25.148438 20.683594 C 25.148438 17.6875 27.582031 15.257812 30.578125 15.257812 C 32.140625 15.257812 33.550781 15.914062 34.539062 16.972656 C 35.777344 16.726562 36.9375 16.277344 37.988281 15.65625 C 37.582031 16.921875 36.722656 17.984375 35.601562 18.65625 C 36.699219 18.523438 37.742188 18.234375 38.71875 17.800781 C 37.992188 18.890625 37.070312 19.847656 36.011719 20.613281 Z M 36.011719 20.613281 "/>
</g>
</svg>
