<?xml version="1.0" standalone="no"?>
<!DOCTYPE svg PUBLIC "-//W3C//DTD SVG 20010904//EN"
        "http://www.w3.org/TR/2001/REC-SVG-20010904/DTD/svg10.dtd">
<svg version="1.0" xmlns="http://www.w3.org/2000/svg"
     width="904.000000pt" height="1124.000000pt" viewBox="0 0 904.000000 1124.000000"
     preserveAspectRatio="xMidYMid meet">

    <g transform="translate(0.000000,1124.000000) scale(0.100000,-0.100000)"
       fill="#000000" stroke="none">
        <path d="M470 10980 c0 -100 3 -120 15 -120 13 0 15 20 15 120 0 100 -2 120
-15 120 -12 0 -15 -20 -15 -120z"/>
        <path d="M1310 11056 l0 -45 -26 14 c-28 14 -49 11 -76 -13 -26 -22 -25 -105
2 -132 22 -22 69 -27 88 -8 9 9 12 9 12 0 0 -7 9 -12 20 -12 19 0 20 7 20 120
0 113 -1 120 -20 120 -17 0 -20 -7 -20 -44z m-12 -68 c16 -16 15 -60 -1 -82
-31 -43 -92 18 -69 68 13 28 49 35 70 14z"/>
        <path d="M106 11075 c-44 -44 -24 -91 50 -114 32 -11 50 -22 52 -35 7 -34 -53
-50 -82 -21 -19 19 -46 19 -46 1 0 -44 113 -63 150 -26 41 41 20 92 -44 110
-55 15 -74 33 -56 55 7 8 23 15 35 15 12 0 28 -7 35 -15 13 -16 50 -21 50 -7
0 5 -10 18 -23 30 -28 26 -97 30 -121 7z"/>
        <path d="M910 11056 c0 -16 -6 -26 -15 -26 -8 0 -15 -5 -15 -10 0 -6 7 -13 15
-16 11 -5 15 -22 15 -65 0 -60 13 -79 54 -79 20 0 21 26 1 34 -11 4 -15 20
-15 56 0 38 4 50 15 50 8 0 15 7 15 15 0 8 -6 15 -14 15 -8 0 -16 10 -18 22
-5 34 -38 37 -38 4z"/>
        <path d="M333 11032 c-52 -8 -74 -111 -33 -152 28 -28 83 -27 112 2 21 21 21
23 4 26 -10 2 -23 -1 -29 -7 -17 -17 -55 -13 -66 8 -14 26 -5 31 56 31 48 0
53 2 53 23 0 49 -41 78 -97 69z m57 -57 c0 -10 -11 -15 -35 -15 -38 0 -48 22
-18 39 21 11 53 -3 53 -24z"/>
        <path d="M593 11032 c-52 -8 -74 -111 -33 -152 28 -28 83 -27 112 2 21 21 21
23 4 26 -10 2 -23 -1 -29 -7 -17 -17 -55 -13 -66 8 -14 26 -5 31 56 31 48 0
53 2 53 23 0 49 -41 78 -97 69z m57 -57 c0 -10 -11 -15 -35 -15 -38 0 -48 22
-18 39 21 11 53 -3 53 -24z"/>
        <path d="M775 11032 c-39 -8 -55 -33 -55 -84 0 -60 24 -88 75 -88 34 0 75 27
75 50 0 16 -37 11 -44 -6 -9 -23 -48 -13 -65 18 -20 36 -2 78 33 78 14 0 28
-4 31 -10 3 -5 15 -10 27 -10 19 0 19 2 6 22 -16 24 -51 37 -83 30z"/>
        <path d="M1063 11032 c-52 -8 -74 -111 -33 -152 28 -28 83 -27 112 2 21 21 21
23 4 26 -10 2 -23 -1 -29 -7 -17 -17 -55 -13 -66 8 -14 26 -5 31 56 31 48 0
53 2 53 23 0 49 -41 78 -97 69z m57 -57 c0 -10 -11 -15 -35 -15 -38 0 -48 22
-18 39 21 11 53 -3 53 -24z"/>
        <path d="M240 10330 c-177 -61 -222 -286 -82 -412 135 -121 346 -59 398 117
36 127 -39 261 -167 299 -66 20 -81 20 -149 -4z m175 -19 c84 -38 135 -117
135 -211 0 -131 -99 -230 -230 -230 -131 0 -230 99 -230 230 0 131 99 230 230
230 32 0 72 -8 95 -19z"/>
        <path d="M266 10278 c-54 -15 -110 -74 -125 -131 -45 -182 177 -309 309 -177
135 135 2 358 -184 308z"/>
        <path d="M850 9020 c0 -100 3 -120 15 -120 13 0 15 20 15 120 0 100 -2 120
-15 120 -12 0 -15 -20 -15 -120z"/>
        <path d="M1700 9101 l0 -38 -48 5 c-57 5 -72 -8 -79 -71 -8 -73 48 -119 108
-87 13 7 19 7 19 0 0 -5 7 -10 15 -10 13 0 15 20 15 120 0 100 -2 120 -15 120
-11 0 -15 -11 -15 -39z m-12 -90 c18 -52 -26 -101 -63 -71 -18 15 -20 71 -3
88 22 22 55 14 66 -17z"/>
        <path d="M90 9037 c0 -85 2 -96 23 -115 35 -33 109 -31 136 4 18 23 21 41 21
116 0 80 -2 89 -17 86 -15 -3 -18 -17 -21 -88 -2 -46 -8 -90 -14 -98 -6 -7
-25 -12 -42 -10 -41 4 -56 36 -56 126 0 57 -3 72 -15 72 -12 0 -15 -17 -15
-93z"/>
        <path d="M1300 9100 c0 -11 -7 -23 -15 -26 -8 -4 -15 -12 -15 -20 0 -8 7 -14
15 -14 12 0 15 -14 15 -64 0 -67 6 -76 51 -76 25 0 25 26 -1 33 -17 4 -20 14
-20 56 0 44 3 51 20 51 11 0 20 7 20 15 0 8 -9 15 -20 15 -15 0 -20 7 -20 25
0 16 -6 25 -15 25 -8 0 -15 -9 -15 -20z"/>
        <path d="M380 9073 c-8 -3 -18 -11 -22 -17 -5 -8 -8 -7 -8 2 0 6 -9 12 -20 12
-18 0 -20 -7 -20 -85 0 -78 2 -85 20 -85 18 0 20 7 20 58 0 68 9 85 41 80 22
-3 24 -8 27 -70 3 -60 5 -68 22 -68 18 0 20 7 20 68 0 39 -5 75 -12 84 -15 19
-47 28 -68 21z"/>
        <path d="M545 9072 c-31 -6 -45 -22 -45 -52 0 -24 6 -30 43 -42 48 -17 64 -48
23 -48 -14 0 -28 5 -31 10 -7 12 -45 13 -45 2 0 -20 39 -42 72 -42 41 0 71 28
66 61 -2 17 -14 27 -47 39 -24 8 -46 20 -48 26 -6 17 25 26 47 14 10 -6 26
-10 35 -10 12 0 14 4 6 19 -11 20 -43 29 -76 23z"/>
        <path d="M713 9072 c-52 -8 -74 -111 -33 -152 28 -28 83 -27 112 2 21 21 21
23 4 26 -10 2 -23 -1 -29 -7 -17 -17 -55 -13 -66 8 -14 26 -5 31 56 31 48 0
53 2 53 23 0 49 -41 78 -97 69z m57 -57 c0 -10 -11 -15 -35 -15 -38 0 -48 22
-18 39 21 11 53 -3 53 -24z"/>
        <path d="M973 9072 c-52 -8 -74 -111 -33 -152 28 -28 83 -27 112 2 21 21 21
23 4 26 -10 2 -23 -1 -29 -7 -17 -17 -55 -13 -66 8 -14 26 -5 31 56 31 48 0
53 2 53 23 0 49 -41 78 -97 69z m57 -57 c0 -10 -11 -15 -35 -15 -38 0 -48 22
-18 39 21 11 53 -3 53 -24z"/>
        <path d="M1155 9072 c-39 -8 -55 -33 -55 -84 0 -60 24 -88 75 -88 34 0 75 27
75 50 0 16 -37 11 -44 -6 -9 -23 -48 -13 -65 18 -20 36 -2 78 33 78 14 0 28
-4 31 -10 3 -5 15 -10 27 -10 19 0 19 2 6 22 -16 24 -51 37 -83 30z"/>
        <path d="M1439 9069 c-49 -18 -65 -96 -28 -143 26 -33 86 -37 114 -6 22 24 12
39 -15 22 -36 -22 -80 -9 -80 25 0 9 17 13 60 13 l60 0 -6 28 c-12 52 -57 78
-105 61z m59 -41 c21 -21 13 -28 -28 -28 -38 0 -52 14 -33 33 11 11 48 8 61
-5z"/>
        <path d="M267 8379 c-56 -13 -89 -33 -129 -77 -89 -98 -81 -250 16 -340 156
-144 410 -35 410 177 -1 65 -20 117 -63 164 -58 64 -154 96 -234 76z m170 -39
c111 -64 147 -205 83 -317 -43 -75 -111 -113 -200 -113 -135 0 -230 95 -230
230 0 135 95 230 230 230 54 0 74 -5 117 -30z"/>
        <path d="M312 7163 c2 -10 10 -18 18 -18 22 0 18 29 -3 33 -14 3 -18 -1 -15
-15z"/>
        <path d="M730 7060 c0 -97 3 -120 14 -120 8 0 16 6 19 13 4 10 7 10 18 0 14
-14 58 -17 75 -5 35 23 45 102 18 141 -14 19 -24 22 -60 19 l-44 -3 0 37 c0
31 -4 38 -20 38 -19 0 -20 -7 -20 -120z m109 6 c17 -20 10 -77 -11 -90 -26
-16 -52 4 -56 43 -4 36 12 61 38 61 10 0 23 -6 29 -14z"/>
        <path d="M930 7060 c0 -100 3 -120 15 -120 13 0 15 20 15 120 0 100 -2 120
-15 120 -12 0 -15 -20 -15 -120z"/>
        <path d="M1300 7136 l0 -45 -26 14 c-28 14 -49 11 -76 -13 -26 -22 -25 -105 2
-132 22 -22 69 -27 88 -8 9 9 12 9 12 0 0 -7 9 -12 20 -12 19 0 20 7 20 120 0
113 -1 120 -20 120 -17 0 -20 -7 -20 -44z m-12 -68 c16 -16 15 -60 -1 -82 -31
-43 -92 18 -69 68 13 28 49 35 70 14z"/>
        <path d="M1840 7060 c0 -113 1 -120 20 -120 19 0 20 7 20 120 0 113 -1 120
-20 120 -19 0 -20 -7 -20 -120z"/>
        <path d="M2690 7141 l0 -38 -48 5 c-57 5 -72 -8 -79 -71 -8 -73 48 -119 108
-87 13 7 19 7 19 0 0 -5 7 -10 15 -10 13 0 15 20 15 120 0 100 -2 120 -15 120
-11 0 -15 -11 -15 -39z m-12 -90 c18 -52 -26 -101 -63 -71 -18 15 -20 71 -3
88 22 22 55 14 66 -17z"/>
        <path d="M90 7055 l0 -117 64 4 c75 4 101 22 116 77 12 44 -2 100 -31 126 -14
13 -40 20 -85 23 l-64 4 0 -117z m129 60 c22 -21 21 -99 -1 -121 -9 -9 -34
-17 -55 -18 l-38 -1 -3 69 c-4 92 0 100 45 93 20 -4 44 -13 52 -22z"/>
        <path d="M1482 7154 c-26 -18 -30 -65 -7 -88 9 -9 33 -20 54 -26 49 -13 68
-34 51 -55 -7 -8 -25 -15 -40 -15 -15 0 -33 7 -40 15 -13 16 -50 21 -50 7 0
-5 11 -19 24 -31 35 -33 111 -27 140 12 19 26 19 30 5 55 -10 18 -30 32 -64
43 -42 13 -50 20 -50 40 0 20 6 25 33 27 22 2 34 -2 38 -12 8 -20 44 -21 44
-2 0 23 -41 46 -80 46 -20 0 -46 -7 -58 -16z"/>
        <path d="M2290 7136 c0 -16 -6 -26 -15 -26 -8 0 -15 -5 -15 -10 0 -6 7 -13 15
-16 11 -5 15 -22 15 -65 0 -60 13 -79 54 -79 20 0 21 26 1 34 -11 4 -15 20
-15 56 0 38 4 50 15 50 8 0 15 7 15 15 0 8 -6 15 -14 15 -8 0 -16 10 -18 22
-5 34 -38 37 -38 4z"/>
        <path d="M435 7112 c-31 -6 -45 -22 -45 -52 0 -24 6 -30 43 -42 48 -17 64 -48
23 -48 -14 0 -28 5 -31 10 -7 12 -45 13 -45 2 0 -20 39 -42 72 -42 41 0 71 28
66 61 -2 17 -14 27 -47 39 -24 8 -46 20 -48 26 -6 17 25 26 47 14 10 -6 26
-10 35 -10 12 0 14 4 6 19 -11 20 -43 29 -76 23z"/>
        <path d="M588 7109 c-31 -12 -46 -39 -20 -38 9 0 26 4 37 8 27 11 45 3 45 -20
0 -15 -7 -19 -35 -19 -22 0 -43 -8 -55 -20 -24 -24 -24 -29 -5 -57 13 -19 25
-22 75 -21 l60 1 0 62 c0 89 -37 127 -102 104z m62 -109 c0 -24 -45 -39 -63
-21 -9 10 -8 16 7 27 29 21 56 18 56 -6z"/>
        <path d="M1053 7112 c-52 -8 -74 -111 -33 -152 28 -28 83 -27 112 2 21 21 21
23 4 26 -10 2 -23 -1 -29 -7 -17 -17 -55 -13 -66 8 -14 26 -5 31 56 31 48 0
53 2 53 23 0 49 -41 78 -97 69z m57 -57 c0 -10 -11 -15 -35 -15 -38 0 -48 22
-18 39 21 11 53 -3 53 -24z"/>
        <path d="M1699 7109 c-49 -18 -65 -96 -28 -143 26 -33 86 -37 114 -6 22 24 12
39 -15 22 -36 -22 -80 -9 -80 25 0 9 17 13 60 13 l60 0 -6 28 c-12 52 -57 78
-105 61z m59 -41 c21 -21 13 -28 -28 -28 -38 0 -52 14 -33 33 11 11 48 8 61
-5z"/>
        <path d="M1959 7109 c-49 -18 -65 -96 -28 -143 26 -33 86 -37 114 -6 22 24 12
39 -15 22 -36 -22 -80 -9 -80 25 0 9 17 13 60 13 l60 0 -6 28 c-12 52 -57 78
-105 61z m59 -41 c21 -21 13 -28 -28 -28 -38 0 -52 14 -33 33 11 11 48 8 61
-5z"/>
        <path d="M2139 7109 c-49 -18 -65 -96 -28 -143 16 -20 29 -26 58 -26 37 0 71
23 71 48 0 17 -25 15 -40 -3 -28 -34 -70 -10 -70 40 0 17 5 36 12 43 15 15 58
16 58 2 0 -5 9 -10 20 -10 11 0 20 4 20 9 0 12 -29 41 -40 41 -5 0 -14 2 -22
4 -7 3 -25 0 -39 -5z"/>
        <path d="M2429 7109 c-49 -18 -65 -96 -28 -143 26 -33 86 -37 114 -6 22 24 12
39 -15 22 -36 -22 -80 -9 -80 25 0 9 17 13 60 13 l60 0 -6 28 c-12 52 -57 78
-105 61z m59 -41 c21 -21 13 -28 -28 -28 -38 0 -52 14 -33 33 11 11 48 8 61
-5z"/>
        <path d="M310 7025 c0 -69 3 -85 15 -85 12 0 15 16 15 85 0 69 -3 85 -15 85
-12 0 -15 -16 -15 -85z"/>
        <path d="M312 5203 c4 -21 33 -25 33 -3 0 8 -8 16 -18 18 -14 3 -18 -1 -15
-15z"/>
        <path d="M730 5100 c0 -97 3 -120 14 -120 8 0 16 6 19 13 4 10 7 10 18 0 14
-14 58 -17 75 -5 35 23 45 102 18 141 -14 19 -24 22 -60 19 l-44 -3 0 37 c0
31 -4 38 -20 38 -19 0 -20 -7 -20 -120z m109 6 c17 -20 10 -77 -11 -90 -26
-16 -52 4 -56 43 -4 36 12 61 38 61 10 0 23 -6 29 -14z"/>
        <path d="M930 5100 c0 -100 3 -120 15 -120 13 0 15 20 15 120 0 100 -2 120
-15 120 -12 0 -15 -20 -15 -120z"/>
        <path d="M1300 5176 l0 -45 -26 14 c-28 14 -49 11 -76 -13 -26 -22 -25 -105 2
-132 22 -22 69 -27 88 -8 9 9 12 9 12 0 0 -7 9 -12 20 -12 19 0 20 7 20 120 0
113 -1 120 -20 120 -17 0 -20 -7 -20 -44z m-12 -68 c16 -16 15 -60 -1 -82 -31
-43 -92 18 -69 68 13 28 49 35 70 14z"/>
        <path d="M2230 5100 c0 -100 3 -120 15 -120 13 0 15 20 15 120 0 100 -2 120
-15 120 -12 0 -15 -20 -15 -120z"/>
        <path d="M3070 5176 l0 -45 -26 14 c-28 14 -49 11 -76 -13 -26 -22 -25 -105 2
-132 22 -22 69 -27 88 -8 9 9 12 9 12 0 0 -7 9 -12 20 -12 19 0 20 7 20 120 0
113 -1 120 -20 120 -17 0 -20 -7 -20 -44z m-12 -68 c16 -16 15 -60 -1 -82 -31
-43 -92 18 -69 68 13 28 49 35 70 14z"/>
        <path d="M90 5095 l0 -117 64 4 c75 4 101 22 116 77 12 44 -2 100 -31 126 -14
13 -40 20 -85 23 l-64 4 0 -117z m129 60 c22 -21 21 -99 -1 -121 -9 -9 -34
-17 -55 -18 l-38 -1 -3 69 c-4 92 0 100 45 93 20 -4 44 -13 52 -22z"/>
        <path d="M1462 5114 c3 -86 5 -98 27 -115 31 -25 101 -25 132 0 20 16 23 29
27 115 4 92 4 96 -17 96 -20 0 -21 -5 -21 -83 0 -90 -13 -117 -57 -117 -39 0
-53 30 -53 118 0 77 -1 82 -21 82 -20 0 -21 -4 -17 -96z"/>
        <path d="M2670 5176 c0 -16 -6 -26 -15 -26 -8 0 -15 -5 -15 -10 0 -6 7 -13 15
-16 11 -5 15 -22 15 -65 0 -60 13 -79 54 -79 20 0 21 26 1 34 -11 4 -15 20
-15 56 0 38 4 50 15 50 8 0 15 7 15 15 0 8 -6 15 -14 15 -8 0 -16 10 -18 22
-5 34 -38 37 -38 4z"/>
        <path d="M435 5152 c-31 -6 -45 -22 -45 -52 0 -24 6 -30 43 -42 48 -17 64 -48
23 -48 -14 0 -28 5 -31 10 -7 12 -45 13 -45 2 0 -20 39 -42 72 -42 41 0 71 28
66 61 -2 17 -14 27 -47 39 -24 8 -46 20 -48 26 -6 17 25 26 47 14 10 -6 26
-10 35 -10 12 0 14 4 6 19 -11 20 -43 29 -76 23z"/>
        <path d="M588 5149 c-31 -12 -46 -39 -20 -38 9 0 26 4 37 8 27 11 45 3 45 -20
0 -15 -7 -19 -35 -19 -22 0 -43 -8 -55 -20 -24 -24 -24 -29 -5 -57 13 -19 25
-22 75 -21 l60 1 0 62 c0 89 -37 127 -102 104z m62 -109 c0 -24 -45 -39 -63
-21 -9 10 -8 16 7 27 29 21 56 18 56 -6z"/>
        <path d="M1053 5152 c-52 -8 -74 -111 -33 -152 28 -28 83 -27 112 2 21 21 21
23 4 26 -10 2 -23 -1 -29 -7 -17 -17 -55 -13 -66 8 -14 26 -5 31 56 31 48 0
53 2 53 23 0 49 -41 78 -97 69z m57 -57 c0 -10 -11 -15 -35 -15 -38 0 -48 22
-18 39 21 11 53 -3 53 -24z"/>
        <path d="M1746 5145 c-14 -8 -26 -10 -26 -4 0 5 -7 9 -15 9 -12 0 -15 -16 -15
-85 0 -69 3 -85 15 -85 11 0 15 12 15 51 0 62 13 89 44 89 29 0 36 -16 36 -86
0 -41 4 -54 15 -54 12 0 15 15 15 74 0 47 -5 77 -12 83 -25 19 -46 21 -72 8z"/>
        <path d="M1901 5144 c-23 -9 -31 -20 -31 -37 0 -30 14 -42 60 -54 20 -5 35
-16 35 -24 0 -17 -43 -25 -58 -10 -16 16 -37 14 -37 -4 0 -19 31 -35 69 -35
33 0 71 30 71 55 0 17 -34 40 -72 49 -16 4 -28 13 -28 22 0 19 28 30 43 15 13
-13 47 -15 47 -2 0 28 -57 42 -99 25z"/>
        <path d="M2093 5152 c-52 -8 -74 -111 -33 -152 28 -28 83 -27 112 2 21 21 21
23 4 26 -10 2 -23 -1 -29 -7 -17 -17 -55 -13 -66 8 -14 26 -5 31 56 31 48 0
53 2 53 23 0 49 -41 78 -97 69z m57 -57 c0 -10 -11 -15 -35 -15 -38 0 -48 22
-18 39 21 11 53 -3 53 -24z"/>
        <path d="M2339 5149 c-49 -18 -65 -96 -28 -143 26 -33 86 -37 114 -6 22 24 12
39 -15 22 -36 -22 -80 -9 -80 25 0 9 17 13 60 13 l60 0 -6 28 c-12 52 -57 78
-105 61z m59 -41 c21 -21 13 -28 -28 -28 -38 0 -52 14 -33 33 11 11 48 8 61
-5z"/>
        <path d="M2519 5149 c-49 -18 -65 -96 -28 -143 16 -20 29 -26 58 -26 37 0 71
23 71 48 0 17 -25 15 -40 -3 -28 -34 -70 -10 -70 40 0 17 5 36 12 43 15 15 58
16 58 2 0 -5 9 -10 20 -10 11 0 20 4 20 9 0 12 -29 41 -40 41 -5 0 -14 2 -22
4 -7 3 -25 0 -39 -5z"/>
        <path d="M2823 5152 c-52 -8 -74 -111 -33 -152 28 -28 83 -27 112 2 21 21 21
23 4 26 -10 2 -23 -1 -29 -7 -17 -17 -55 -13 -66 8 -14 26 -5 31 56 31 48 0
53 2 53 23 0 49 -41 78 -97 69z m57 -57 c0 -10 -11 -15 -35 -15 -38 0 -48 22
-18 39 21 11 53 -3 53 -24z"/>
        <path d="M310 5065 c0 -69 3 -85 15 -85 12 0 15 16 15 85 0 69 -3 85 -15 85
-12 0 -15 -16 -15 -85z"/>
        <path d="M267 4459 c-56 -13 -89 -33 -129 -77 -89 -98 -81 -250 16 -340 156
-144 410 -35 410 177 -1 65 -20 117 -63 164 -58 64 -154 96 -234 76z m170 -39
c153 -88 153 -312 0 -400 -112 -64 -253 -28 -317 83 -64 112 -28 253 83 317
43 25 63 30 117 30 54 0 74 -5 117 -30z"/>
        <path d="M90 3135 l0 -115 70 0 c54 0 70 3 70 14 0 11 -15 16 -52 18 -52 3
-53 4 -56 36 l-3 32 55 0 c42 0 56 4 56 14 0 11 -15 16 -52 18 -51 3 -53 4
-53 33 0 29 2 30 53 33 37 2 52 7 52 18 0 11 -16 14 -70 14 l-70 0 0 -115z"/>
        <path d="M335 3190 c-11 -5 -30 -6 -42 -3 -22 5 -23 3 -23 -81 0 -70 3 -86 15
-86 11 0 15 12 15 51 0 63 13 89 45 89 15 0 25 6 25 14 0 20 -11 25 -35 16z"/>
        <path d="M466 3193 c-3 -3 -22 -6 -41 -5 l-35 1 0 -84 c0 -78 2 -85 20 -85 18
0 20 7 20 58 0 60 11 82 42 82 10 0 18 6 18 14 0 17 -14 28 -24 19z"/>
        <path d="M549 3189 c-49 -18 -65 -96 -28 -143 29 -37 89 -37 118 0 28 35 28
97 1 124 -11 11 -24 20 -29 20 -5 0 -15 2 -23 4 -7 3 -25 0 -39 -5z m69 -58
c18 -52 -26 -101 -63 -71 -18 15 -20 71 -3 88 22 22 55 14 66 -17z"/>
        <path d="M765 3190 c-11 -5 -30 -6 -42 -3 -22 5 -23 3 -23 -81 0 -70 3 -86 15
-86 11 0 15 12 15 51 0 63 13 89 45 89 15 0 25 6 25 14 0 20 -11 25 -35 16z"/>
        <path d="M265 2501 c-113 -29 -189 -125 -189 -241 0 -97 50 -176 139 -223 55
-29 155 -29 210 0 89 47 139 126 139 223 0 73 -17 115 -68 168 -57 62 -156 93
-231 73z m143 -27 c153 -63 191 -267 71 -381 -146 -138 -388 -36 -389 165 0
130 99 231 228 232 29 0 69 -7 90 -16z"/>
        <path d="M392 1283 c4 -21 33 -25 33 -3 0 8 -8 16 -18 18 -14 3 -18 -1 -15
-15z"/>
        <path d="M590 1180 c0 -100 3 -120 15 -120 12 0 15 13 15 58 0 62 11 82 46 82
27 0 34 -17 34 -86 0 -41 4 -54 15 -54 12 0 15 15 15 74 0 47 -5 77 -12 83
-25 19 -46 21 -72 8 l-26 -14 0 45 c0 32 -4 44 -15 44 -12 0 -15 -20 -15 -120z"/>
        <path d="M1210 1180 c0 -100 3 -120 15 -120 8 0 15 5 15 10 0 7 6 7 19 0 57
-30 104 7 104 81 0 64 -47 100 -97 73 l-26 -13 0 45 c0 32 -4 44 -15 44 -12 0
-15 -20 -15 -120z m110 1 c15 -30 12 -56 -9 -75 -41 -37 -87 15 -62 70 13 30
56 33 71 5z"/>
        <path d="M1580 1180 c0 -113 1 -120 20 -120 19 0 20 7 20 120 0 113 -1 120
-20 120 -19 0 -20 -7 -20 -120z"/>
        <path d="M101 1183 c16 -60 29 -111 29 -115 0 -5 9 -8 19 -8 15 0 23 13 36 58
33 116 30 115 54 36 11 -39 21 -76 21 -83 0 -6 9 -11 20 -11 15 0 23 12 35 55
54 195 51 175 27 175 -15 0 -22 -16 -37 -80 -10 -44 -22 -77 -25 -73 -4 4 -15
39 -25 76 -17 62 -36 90 -51 74 -3 -3 -16 -42 -28 -88 l-23 -83 -12 50 c-29
119 -31 124 -51 124 -17 0 -17 -6 11 -107z"/>
        <path d="M860 1175 l0 -115 70 0 c54 0 70 3 70 14 0 11 -15 16 -52 18 l-53 3
-3 98 c-2 77 -6 97 -17 97 -12 0 -15 -21 -15 -115z"/>
        <path d="M480 1256 c0 -16 -6 -26 -15 -26 -8 0 -15 -5 -15 -10 0 -6 7 -13 15
-16 11 -5 15 -22 15 -65 0 -60 13 -79 54 -79 20 0 21 26 1 34 -11 4 -15 20
-15 56 0 38 4 50 15 50 8 0 15 7 15 15 0 8 -6 15 -14 15 -8 0 -16 10 -18 22
-5 34 -38 37 -38 4z"/>
        <path d="M1073 1232 c-24 -4 -49 -29 -39 -39 4 -4 20 -2 36 4 22 8 33 8 46 -2
24 -17 9 -35 -31 -35 -56 0 -85 -49 -49 -84 18 -19 65 -21 82 -4 9 9 12 9 12
0 0 -7 7 -12 15 -12 12 0 15 15 15 74 0 47 -5 77 -12 83 -17 13 -48 19 -75 15z
m57 -98 c0 -20 -24 -44 -45 -44 -30 0 -36 36 -7 43 26 7 52 8 52 1z"/>
        <path d="M1439 1229 c-49 -18 -65 -96 -28 -143 26 -33 86 -37 114 -6 22 24 12
39 -15 22 -36 -22 -80 -9 -80 25 0 9 17 13 60 13 l60 0 -6 28 c-12 52 -57 78
-105 61z m59 -41 c21 -21 13 -28 -28 -28 -38 0 -52 14 -33 33 11 11 48 8 61
-5z"/>
        <path d="M390 1145 c0 -69 3 -85 15 -85 12 0 15 16 15 85 0 69 -3 85 -15 85
-12 0 -15 -16 -15 -85z"/>
        <path d="M267 539 c-56 -13 -89 -33 -129 -77 -89 -98 -81 -250 16 -340 96 -89
236 -89 332 0 98 90 105 242 15 341 -58 64 -154 96 -234 76z m170 -39 c153
-88 153 -312 0 -400 -74 -43 -160 -43 -234 0 -153 88 -153 312 0 400 43 25 63
30 117 30 54 0 74 -5 117 -30z"/>
        <path d="M1480 305 c0 -87 3 -105 15 -105 12 0 15 18 15 105 0 87 -3 105 -15
105 -12 0 -15 -18 -15 -105z"/>
        <path d="M1700 305 c0 -87 3 -105 15 -105 8 0 15 5 15 12 0 9 3 9 12 0 7 -7
24 -12 40 -12 20 0 31 8 43 30 8 16 15 36 15 45 0 9 -7 29 -15 45 -12 22 -23
30 -43 30 -16 0 -33 -5 -40 -12 -9 -9 -12 -3 -12 30 0 31 -4 42 -15 42 -12 0
-15 -18 -15 -105z m94 9 c9 -8 16 -26 16 -39 0 -23 -23 -55 -40 -55 -17 0 -40
32 -40 55 0 23 23 55 40 55 5 0 16 -7 24 -16z"/>
        <path d="M2030 305 c0 -63 4 -105 10 -105 6 0 10 42 10 105 0 63 -4 105 -10
105 -6 0 -10 -42 -10 -105z"/>
        <path d="M800 300 c0 -82 3 -100 15 -100 12 0 15 18 15 100 0 82 -3 100 -15
100 -12 0 -15 -18 -15 -100z"/>
        <path d="M872 363 c2 -21 8 -38 13 -38 6 0 11 17 13 38 3 29 0 37 -13 37 -13
0 -16 -8 -13 -37z"/>
        <path d="M940 275 c0 -43 4 -75 10 -75 6 0 10 22 10 48 0 56 17 86 43 76 13
-5 17 -19 17 -65 0 -46 3 -59 15 -59 11 0 15 13 15 54 0 56 17 83 45 72 11 -4
15 -21 15 -66 0 -47 3 -60 15 -60 12 0 15 14 15 63 0 36 -5 68 -12 75 -15 15
-60 16 -75 1 -8 -8 -13 -8 -17 0 -9 15 -49 14 -64 -1 -9 -9 -12 -9 -12 0 0 7
-4 12 -10 12 -6 0 -10 -32 -10 -75z"/>
        <path d="M1265 334 c-22 -22 -11 -30 19 -14 28 15 56 8 56 -15 0 -9 -9 -15
-26 -15 -38 0 -64 -18 -64 -44 0 -34 20 -45 73 -44 l47 1 0 54 c0 73 -12 93
-55 93 -18 0 -41 -7 -50 -16z m75 -78 c0 -20 -27 -39 -45 -32 -18 7 -20 32 -2
39 24 10 47 7 47 -7z"/>
        <path d="M1560 335 c-18 -22 -4 -31 25 -15 20 11 27 11 40 0 23 -19 18 -30
-14 -30 -16 0 -39 -8 -52 -19 -21 -16 -22 -22 -11 -45 10 -24 16 -26 62 -24
l50 2 0 61 c0 34 -5 66 -12 73 -17 17 -73 15 -88 -3z m80 -74 c0 -11 -28 -41
-38 -41 -4 0 -14 5 -22 10 -13 9 -12 12 4 25 22 17 56 20 56 6z"/>
        <path d="M1881 324 c-12 -15 -21 -37 -21 -49 0 -38 37 -75 75 -75 18 0 38 7
45 15 17 21 4 32 -20 17 -26 -16 -35 -15 -54 4 -27 26 -18 34 40 34 47 0 55 3
50 16 -3 9 -6 19 -6 24 0 18 -33 40 -60 40 -19 0 -36 -9 -49 -26z m79 -14 c10
-18 8 -20 -30 -20 -45 0 -47 2 -24 24 21 22 41 20 54 -4z"/>
    </g>
</svg>
