<?xml version="1.0" encoding="UTF-8"?>
<svg version="1.1" width="24px" height="18px"
     xmlns="http://www.w3.org/2000/svg">
    <g transform="matrix(1 0 0 1 0 -1 )">
        <path d="M 15.875 10.5340909090909  C 15.9583333333333 10.4318181818182  16 10.3295454545455  16 10.2272727272727  C 16 10.1079545454545  15.9625 10.0099431818182  15.8875 9.93323863636363  C 15.8125 9.85653409090909  15.7166666666667 9.81818181818182  15.6 9.81818181818182  L 12.8 9.81818181818182  L 12.8 5.31818181818182  C 12.8 5.20738636363636  12.7604166666667 5.11150568181818  12.68125 5.03053977272727  C 12.6020833333333 4.94957386363636  12.5083333333333 4.90909090909091  12.4 4.90909090909091  L 10 4.90909090909091  C 9.89166666666667 4.90909090909091  9.79791666666667 4.94957386363636  9.71875 5.03053977272727  C 9.63958333333333 5.11150568181818  9.6 5.20738636363636  9.6 5.31818181818182  L 9.6 9.81818181818182  L 6.8 9.81818181818182  C 6.69166666666667 9.81818181818182  6.59791666666667 9.85866477272727  6.51875 9.93963068181818  C 6.43958333333333 10.0205965909091  6.4 10.1164772727273  6.4 10.2272727272727  C 6.4 10.3465909090909  6.4375 10.4446022727273  6.5125 10.5213068181818  L 10.9125 15.0213068181818  C 10.9875 15.0980113636364  11.0833333333333 15.1363636363636  11.2 15.1363636363636  C 11.3166666666667 15.1363636363636  11.4125 15.0980113636364  11.4875 15.0213068181818  L 15.875 10.5340909090909  Z M 22.95625 10.0419034090909  C 23.6520833333333 10.9325284090909  24 11.9488636363636  24 13.0909090909091  C 24 14.4460227272727  23.53125 15.6029829545455  22.59375 16.5617897727273  C 21.65625 17.5205965909091  20.525 18  19.2 18  L 5.6 18  C 4.05833333333333 18  2.73958333333333 17.4396306818182  1.64375 16.3188920454545  C 0.547916666666667 15.1981534090909  0 13.8494318181818  0 12.2727272727273  C 0 11.1647727272727  0.291666666666667 10.1420454545455  0.875 9.20454545454546  C 1.45833333333333 8.26704545454545  2.24166666666667 7.56392045454545  3.225 7.09517045454545  C 3.20833333333333 6.83948863636364  3.2 6.65625  3.2 6.54545454545455  C 3.2 4.73863636363636  3.825 3.19602272727273  5.075 1.91761363636364  C 6.325 0.639204545454546  7.83333333333333 0  9.6 0  C 10.9 0  12.0895833333333 0.370738636363637  13.16875 1.11221590909091  C 14.2479166666667 1.85369318181818  15.0333333333333 2.83806818181818  15.525 4.06534090909091  C 16.1166666666667 3.53693181818182  16.8083333333333 3.27272727272727  17.6 3.27272727272727  C 18.4833333333333 3.27272727272727  19.2375 3.59232954545455  19.8625 4.23153409090909  C 20.4875 4.87073863636364  20.8 5.64204545454545  20.8 6.54545454545455  C 20.8 7.19318181818182  20.6291666666667 7.78125  20.2875 8.30965909090909  C 21.3708333333333 8.57386363636364  22.2604166666667 9.15127840909091  22.95625 10.0419034090909  Z "
              fill-rule="nonzero" fill="#395f86" stroke="none" transform="matrix(1 0 0 1 0 1 )"/>
    </g>
</svg>