<?xml version="1.0" encoding="UTF-8"?>
<svg version="1.1" xmlns:xlink="http://www.w3.org/1999/xlink" width="24px" height="20px" xmlns="http://www.w3.org/2000/svg">
  <g transform="matrix(1 0 0 1 1 0 )">
    <path d="M 7.05882352941176 14.3973214285714  L 7.05882352941176 18.2142857142857  L 11.2941176470588 16.0714285714286  L 11.2941176470588 12.5669642857143  L 7.05882352941176 14.3973214285714  Z M 1.89705882352941 11.2165178571429  L 6.35294117647059 13.1473214285714  L 10.8088235294118 11.2165178571429  L 6.35294117647059 9.28571428571429  L 1.89705882352941 11.2165178571429  Z M 18.3529411764706 14.3973214285714  L 18.3529411764706 18.2142857142857  L 22.5882352941176 16.0714285714286  L 22.5882352941176 12.5669642857143  L 18.3529411764706 14.3973214285714  Z M 13.1911764705882 11.2165178571429  L 17.6470588235294 13.1473214285714  L 22.1029411764706 11.2165178571429  L 17.6470588235294 9.28571428571429  L 13.1911764705882 11.2165178571429  Z M 12.7058823529412 6.89732142857143  L 12.7058823529412 9.87723214285714  L 16.9411764705882 8.03571428571429  L 16.9411764705882 5.06696428571429  L 12.7058823529412 6.89732142857143  Z M 7.13602941176471 3.53794642857143  L 12 5.64732142857143  L 16.8639705882353 3.53794642857143  L 12 1.42857142857143  L 7.13602941176471 3.53794642857143  Z M 23.7683823529412 10.6473214285714  C 23.9227941176471 10.8854166666667  24 11.1458333333333  24 11.4285714285714  L 24 16.0714285714286  C 24 16.3392857142857  23.9301470588235 16.5885416666667  23.7904411764706 16.8191964285714  C 23.6507352941176 17.0498511904762  23.4595588235294 17.2247023809524  23.2169117647059 17.34375  L 18.2757352941176 19.84375  C 18.0919117647059 19.9479166666667  17.8823529411765 20  17.6470588235294 20  C 17.4117647058824 20  17.2022058823529 19.9479166666667  17.0183823529412 19.84375  L 12.0772058823529 17.34375  C 12.0477941176471 17.328869047619  12.0220588235294 17.3139880952381  12 17.2991071428571  C 11.9852941176471 17.3139880952381  11.9595588235294 17.328869047619  11.9227941176471 17.34375  L 6.98161764705882 19.84375  C 6.79779411764706 19.9479166666667  6.58823529411765 20  6.35294117647059 20  C 6.11764705882353 20  5.90808823529412 19.9479166666667  5.72426470588235 19.84375  L 0.783088235294118 17.34375  C 0.540441176470588 17.2247023809524  0.349264705882353 17.0498511904762  0.209558823529412 16.8191964285714  C 0.0698529411764706 16.5885416666667  0 16.3392857142857  0 16.0714285714286  L 0 11.4285714285714  C 0 11.1458333333333  0.0790441176470588 10.8854166666667  0.237132352941176 10.6473214285714  C 0.395220588235294 10.4092261904762  0.602941176470588 10.2306547619048  0.860294117647059 10.1116071428571  L 5.64705882352941 8.03571428571429  L 5.64705882352941 3.57142857142857  C 5.64705882352941 3.28869047619047  5.72610294117647 3.02827380952381  5.88419117647059 2.79017857142857  C 6.04227941176471 2.55208333333333  6.25 2.3735119047619  6.50735294117647 2.25446428571429  L 11.4485294117647 0.111607142857142  C 11.6176470588235 0.0372023809523836  11.8014705882353 0  12 0  C 12.1985294117647 0  12.3823529411765 0.0372023809523836  12.5514705882353 0.111607142857142  L 17.4926470588235 2.25446428571429  C 17.75 2.3735119047619  17.9577205882353 2.55208333333333  18.1158088235294 2.79017857142857  C 18.2738970588235 3.02827380952381  18.3529411764706 3.28869047619047  18.3529411764706 3.57142857142857  L 18.3529411764706 8.03571428571429  L 23.1397058823529 10.1116071428571  C 23.4044117647059 10.2306547619048  23.6139705882353 10.4092261904762  23.7683823529412 10.6473214285714  Z " fill-rule="nonzero" fill="#395f86" stroke="none" transform="matrix(1 0 0 1 -1 0 )"/>
  </g>
</svg>