<?xml version="1.0" encoding="UTF-8"?>
<svg version="1.1" width="19px" height="20px"
     xmlns="http://www.w3.org/2000/svg">
    <g transform="matrix(1 0 0 1 -30 -89 )">
        <path d="M 11.9986301369863 6.86197916666667  L 18.5445205479452 17.1875  C 19.0303652968037 17.9600694444444  19.1236301369863 18.6219618055556  18.8243150684931 19.1731770833333  C 18.525 19.7243923611111  17.9155251141553 20  16.9958904109589 20  L 2.0041095890411 20  C 1.08447488584475 20  0.475 19.7243923611111  0.175684931506849 19.1731770833333  C -0.123630136986301 18.6219618055556  -0.0303652968036529 17.9600694444444  0.455479452054795 17.1875  L 7.0013698630137 6.86197916666667  L 7.0013698630137 1.66666666666667  L 6.16849315068493 1.66666666666667  C 5.94292237442922 1.66666666666667  5.74771689497717 1.58420138888889  5.58287671232877 1.41927083333333  C 5.41803652968037 1.25434027777778  5.33561643835616 1.05902777777778  5.33561643835616 0.833333333333333  C 5.33561643835616 0.607638888888886  5.41803652968037 0.412326388888886  5.58287671232877 0.247395833333333  C 5.74771689497717 0.0824652777777768  5.94292237442922 0  6.16849315068493 0  L 12.8315068493151 0  C 13.0570776255708 0  13.2522831050228 0.0824652777777768  13.4171232876712 0.247395833333333  C 13.5819634703196 0.412326388888886  13.6643835616438 0.607638888888886  13.6643835616438 0.833333333333333  C 13.6643835616438 1.05902777777778  13.5819634703196 1.25434027777778  13.4171232876712 1.41927083333333  C 13.2522831050228 1.58420138888889  13.0570776255708 1.66666666666667  12.8315068493151 1.66666666666667  L 11.9986301369863 1.66666666666667  L 11.9986301369863 6.86197916666667  Z M 8.66712328767123 7.34375  L 8.40684931506849 7.74739583333333  L 4.86712328767123 13.3333333333333  L 14.1328767123288 13.3333333333333  L 10.5931506849315 7.74739583333333  L 10.3328767123288 7.34375  L 10.3328767123288 6.86197916666667  L 10.3328767123288 1.66666666666667  L 8.66712328767123 1.66666666666667  L 8.66712328767123 6.86197916666667  L 8.66712328767123 7.34375  Z "
              fill-rule="nonzero" fill="#0A3761" stroke="none" transform="matrix(1 0 0 1 30 89 )"/>
    </g>
</svg>